<svg width="16" height="16" viewBox="0 0 16 16" fill="none" xmlns="http://www.w3.org/2000/svg">
<path d="M4.80306 10.535H13.6191C14.6187 10.535 15.4342 9.71952 15.4342 8.71987V5.01063C15.4342 5.00735 15.4342 5.00077 15.4342 4.99748C15.4342 4.98762 15.4342 4.98104 15.4342 4.97117C15.4342 4.9646 15.4342 4.95802 15.4309 4.95144C15.4309 4.94487 15.4277 4.935 15.4277 4.92843C15.4277 4.92185 15.4244 4.91527 15.4244 4.9087C15.4211 4.90212 15.4211 4.89554 15.4178 4.88568C15.4145 4.8791 15.4145 4.87252 15.4112 4.86595C15.4079 4.85937 15.4079 4.85279 15.4046 4.84622C15.4013 4.83964 15.3981 4.83306 15.3948 4.8232C15.3915 4.81662 15.3882 4.81005 15.3849 4.80676C15.3816 4.80018 15.3783 4.7936 15.375 4.78703C15.3718 4.78045 15.3685 4.77716 15.3652 4.77059C15.3619 4.76401 15.3553 4.75743 15.352 4.75086C15.3487 4.74428 15.3454 4.74099 15.3389 4.73441C15.3356 4.72784 15.329 4.72455 15.3257 4.71797C15.3224 4.7114 15.3159 4.70811 15.3126 4.70153C15.3093 4.69495 15.3027 4.69167 15.2994 4.68838C15.2928 4.6818 15.2895 4.67851 15.283 4.67194C15.2764 4.66865 15.2731 4.66207 15.2665 4.65878C15.26 4.65549 15.2534 4.64892 15.2468 4.64563C15.2402 4.64234 15.2369 4.63905 15.2304 4.63576C15.2238 4.63248 15.2172 4.62919 15.2106 4.62261C15.204 4.61932 15.1975 4.61603 15.1909 4.61275C15.1843 4.60946 15.1777 4.60617 15.1712 4.60288C15.1646 4.59959 15.158 4.5963 15.1514 4.59302C15.1449 4.58973 15.1383 4.58973 15.1317 4.58644C15.1251 4.58315 15.1153 4.57986 15.1087 4.57986C15.1021 4.57986 15.0955 4.57657 15.0922 4.57657C15.0824 4.57329 15.0758 4.57329 15.0659 4.57329C15.0627 4.57329 15.0594 4.57 15.0528 4.57L3.87904 3.02777V1.4691C3.87904 1.45266 3.87904 1.43622 3.87575 1.42306C3.87575 1.41978 3.87575 1.41649 3.87246 1.40991C3.87246 1.40005 3.86917 1.39018 3.86917 1.38032C3.86589 1.37045 3.86589 1.36387 3.8626 1.35401C3.8626 1.34743 3.85931 1.34414 3.85931 1.33757C3.85602 1.3277 3.85273 1.31784 3.84944 1.30797C3.84944 1.30468 3.84616 1.29811 3.84616 1.29482C3.84287 1.28495 3.83958 1.27838 3.833 1.26851C3.82971 1.26522 3.82971 1.25865 3.82643 1.25536C3.82314 1.24878 3.81985 1.24221 3.81327 1.23563C3.80998 1.22905 3.8067 1.22576 3.80341 1.21919C3.80012 1.21261 3.79683 1.20932 3.79354 1.20275C3.79025 1.19617 3.78368 1.18959 3.78039 1.18302C3.7771 1.17973 3.77381 1.17644 3.77052 1.17315C3.76395 1.16657 3.75737 1.16 3.75079 1.15342C3.74751 1.15013 3.74422 1.14684 3.74093 1.14356C3.73435 1.13698 3.72778 1.1304 3.71791 1.12383C3.71462 1.12054 3.70805 1.11725 3.70476 1.11396C3.69818 1.10738 3.6916 1.1041 3.68503 1.09752C3.67516 1.09094 3.6653 1.08437 3.65872 1.08108C3.65543 1.07779 3.65214 1.07779 3.64886 1.0745C3.6357 1.06792 3.61926 1.06135 3.60611 1.05477L1.18261 0.0353882C0.955714 -0.0599734 0.695935 0.0452532 0.600574 0.272148C0.505212 0.499043 0.610439 0.758821 0.837334 0.854183L2.9879 1.76176V3.77422V4.09319V6.53971V8.72645V11.4886C2.9879 12.4094 3.67845 13.1723 4.56959 13.2874C4.40846 13.557 4.3131 13.8727 4.3131 14.2081C4.3131 15.1979 5.11874 16.0002 6.10524 16.0002C7.09174 16.0002 7.89738 15.1946 7.89738 14.2081C7.89738 13.8793 7.80859 13.5669 7.65075 13.3038H11.6428C11.4849 13.5702 11.3962 13.8793 11.3962 14.2081C11.3962 15.1979 12.2018 16.0002 13.1883 16.0002C14.1748 16.0002 14.9804 15.1946 14.9804 14.2081C14.9804 13.2216 14.1748 12.416 13.1883 12.416H4.80306C4.29008 12.416 3.87575 11.9983 3.87575 11.4886V10.2851C4.14539 10.443 4.46436 10.535 4.80306 10.535ZM7.01282 14.2048C7.01282 14.7046 6.60506 15.1091 6.10853 15.1091C5.61199 15.1091 5.20424 14.7013 5.20424 14.2048C5.20424 13.7083 5.61199 13.3005 6.10853 13.3005C6.60506 13.3005 7.01282 13.705 7.01282 14.2048ZM14.0959 14.2048C14.0959 14.7046 13.6881 15.1091 13.1916 15.1091C12.6951 15.1091 12.2873 14.7013 12.2873 14.2048C12.2873 13.7083 12.6951 13.3005 13.1916 13.3005C13.6881 13.3005 14.0959 13.705 14.0959 14.2048ZM13.6191 9.64718H4.80306C4.29008 9.64718 3.87575 9.22956 3.87575 8.71987V6.53313V4.08661V3.9222L14.5464 5.39208V8.71658C14.5464 9.23285 14.1288 9.64718 13.6191 9.64718Z" fill="#333333"/>
</svg>
