<svg xmlns="http://www.w3.org/2000/svg" width="500" height="500">
  <g>
    <title>
      Layer 1
    </title>
    <g id="svg_1">
      <path id="svg_2" d="m250 31.200001c-120.600006 0-218.799999 98.199993-218.799999 218.799999 0 120.600006 98.100002 219.200012 218.799999 219.200012 120.600006 0 218.800018-98.600006 218.800018-219.200012 -0.000031-120.600006-98.200012-218.799999-218.800018-218.799999zm88.399994 285.099987c6.100006 6.100006 6.100006 16 0 22.100006 -6.100006 6.100006-16 6.100006-22.100006 0l-66.299988-66.299988 -66.300003 66.300018c-6.099991 6.099976-16 6.099976-22.099991 0 -6.100006-6.100006-6.100006-16 0-22.100006l66.299988-66.300003 -66.299988-66.300018c-6.100006-6.099991-6.100006-16 0-22.099991 6.099991-6.100006 16-6.100006 22.099991 0l66.300003 66.300003 66.299988-66.300003c6.100006-6.100006 16-6.100006 22.100006 0s6.100006 16 0 22.099991l-66.299988 66.300003 66.299988 66.299988z" fill="none"/>
      <path id="svg_3" d="m245.733795-1c-140.45665 0-254.2662 111.900002-254.2662 250 0 138.100006 113.80955 250 254.2662 250 140.456665 0 254.266205-111.899994 254.266205-250 0-138.099998-113.80954-250-254.266205-250zm0 469.200012c-122.65802 0-222.533777-98.600006-222.533777-219.199997 0-120.599991 99.774057-218.800005 222.533777-218.800005 122.65802 0 222.533783 98.099993 222.533783 218.800005 0 120.599991-99.875763 219.199997-222.533783 219.199997z" fill="#3793e6"/>
      <path id="svg_4" d="m338.399994 161.600006c-6.100006-6.099991-16-6.099991-22.100006 0l-66.299988 66.299988 -66.300003-66.300003c-6.099991-6.100006-16-6.100006-22.099991 0 -6.100006 6.100006-6.100006 16 0 22.100006l66.299988 66.299988 -66.299988 66.300003c-6.100006 6.100006-6.100006 16 0 22.100006 6.099991 6.100006 16 6.100006 22.099991 0l66.300003-66.300018 66.299988 66.300018c6.100006 6.100006 16 6.100006 22.100006 0 6.100006-6.100006 6.100006-16 0-22.100006l-66.299988-66.299988 66.300018-66.300003c6.099976-6.099991 6.099976-16-0.000031-22.099991z" fill="#3793e6"/>
    </g>
  </g>
</svg>
