<svg width="40" height="39" viewBox="0 0 40 39" fill="none" xmlns="http://www.w3.org/2000/svg">
<path fill-rule="evenodd" clip-rule="evenodd" d="M21.0324 1.03749C26.2408 0.711237 31.6895 2.51259 35.0768 6.5071C38.2884 10.2945 37.3644 15.6688 37.6541 20.639C37.975 26.1443 40.9693 32.921 36.8269 36.5319C32.6739 40.1519 26.4494 36.0527 21.0324 35.1277C17.0503 34.4477 13.0998 34.2934 9.82072 31.9205C5.80934 29.0176 1.25879 25.6045 1.01076 20.639C0.757594 15.5705 5.01927 11.7024 8.63406 8.16347C12.1803 4.69167 16.0942 1.34682 21.0324 1.03749Z" fill="#0084BD" stroke="#F4F4F4"/>
<line y1="-0.5" x2="18.6949" y2="-0.5" transform="matrix(0.695375 -0.718647 0.695375 0.718647 15 27)" stroke="#F4F4F4"/>
<line y1="-0.5" x2="18.6949" y2="-0.5" transform="matrix(-0.695375 -0.718647 0.695375 -0.718647 28 26.4351)" stroke="#F4F4F4"/>
</svg>
