<svg width="143" height="130" viewBox="0 0 143 130" fill="none" xmlns="http://www.w3.org/2000/svg">
<path fill-rule="evenodd" clip-rule="evenodd" d="M0.260282 70.2226C2.1659 54.2904 19.7043 46.2769 29.8786 33.9155C39.1646 22.6333 43.3411 5.48994 57.2117 1.02846C71.0738 -3.43031 84.4361 7.80692 98.418 11.8697C113.061 16.1245 133.399 12.0525 140.958 25.3632C148.683 38.9658 132.038 54.5651 131.557 70.2226C131.101 85.0503 145.376 100.117 138.261 113.111C131.204 125.997 113.446 128.857 98.8581 129.938C86.3532 130.864 76.2055 121.193 63.9305 118.62C49.2566 115.544 32.3196 122.573 20.3616 113.484C7.41876 103.646 -1.67734 86.4224 0.260282 70.2226Z" fill="#40A3CD"/>
<path d="M53 76H126" stroke="#0084BD" stroke-linejoin="round"/>
<path d="M57.176 55.93H55.898C55.226 55.93 54.71 56.098 54.35 56.434C54.002 56.77 53.828 57.322 53.828 58.09H53.288V56.56C53.288 55.6 53.798 55.12 54.818 55.12H63.278V55.93H59.516V67H57.176V55.93ZM66.1435 57.46C66.1435 56.848 66.0595 56.398 65.8915 56.11C65.7235 55.81 65.3875 55.66 64.8835 55.66H64.7035V55.12H72.6415C73.6615 55.12 74.1715 55.6 74.1715 56.56V58.09H73.6315C73.6315 57.346 73.4395 56.8 73.0555 56.452C72.6835 56.104 72.1255 55.93 71.3815 55.93H68.4835V60.43H73.1635V61.24H68.4835V66.19H71.5615C72.2455 66.19 72.8155 66.04 73.2715 65.74C73.7275 65.428 74.1055 64.894 74.4055 64.138L74.8915 64.318L74.3695 65.74C74.2135 66.172 74.0275 66.49 73.8115 66.694C73.5955 66.898 73.2595 67 72.8035 67H66.1435V57.46ZM78.9705 58.09V67H78.0705V57.28C78.0705 56.776 77.9445 56.38 77.6925 56.092C77.4525 55.804 77.0385 55.66 76.4505 55.66H76.3605V55.12H77.6205C78.2925 55.12 78.8385 55.21 79.2585 55.39C79.6905 55.558 80.0505 55.828 80.3385 56.2L86.5305 63.4V55.12H87.4305V67.054H86.6025L78.9705 58.09ZM94.0254 55.93H92.7474C92.0754 55.93 91.5594 56.098 91.1994 56.434C90.8514 56.77 90.6774 57.322 90.6774 58.09H90.1374V56.56C90.1374 55.6 90.6474 55.12 91.6674 55.12H100.127V55.93H96.3654V67H94.0254V55.93ZM107.168 67.36C106.004 67.36 104.966 67.084 104.054 66.532C103.154 65.98 102.458 65.224 101.966 64.264C101.474 63.304 101.228 62.236 101.228 61.06C101.228 59.884 101.474 58.816 101.966 57.856C102.458 56.896 103.154 56.14 104.054 55.588C104.966 55.036 106.004 54.76 107.168 54.76C108.332 54.76 109.364 55.036 110.264 55.588C111.164 56.14 111.86 56.896 112.352 57.856C112.844 58.816 113.09 59.884 113.09 61.06C113.09 62.236 112.844 63.304 112.352 64.264C111.86 65.224 111.164 65.98 110.264 66.532C109.364 67.084 108.332 67.36 107.168 67.36ZM107.168 66.55C108.26 66.55 109.106 66.076 109.706 65.128C110.306 64.168 110.606 62.812 110.606 61.06C110.606 59.308 110.306 57.958 109.706 57.01C109.106 56.05 108.26 55.57 107.168 55.57C106.076 55.57 105.23 56.05 104.63 57.01C104.042 57.958 103.748 59.308 103.748 61.06C103.748 62.812 104.042 64.168 104.63 65.128C105.23 66.076 106.076 66.55 107.168 66.55ZM124.818 67.18C124.158 67.18 123.558 66.988 123.018 66.604C122.478 66.208 121.914 65.53 121.326 64.57L119.526 61.564H118.806V67H116.448V57.46C116.448 56.848 116.364 56.398 116.196 56.11C116.028 55.81 115.692 55.66 115.188 55.66H115.008V55.12H119.976C121.224 55.12 122.346 55.348 123.342 55.804C124.338 56.26 124.836 57.136 124.836 58.432C124.836 59.932 123.864 60.928 121.92 61.42L123.81 64.57C124.518 65.758 125.262 66.418 126.042 66.55V67C125.946 67.048 125.772 67.09 125.52 67.126C125.268 67.162 125.034 67.18 124.818 67.18ZM119.886 60.844C120.558 60.844 121.128 60.646 121.596 60.25C122.076 59.842 122.316 59.206 122.316 58.342C122.316 57.49 122.082 56.86 121.614 56.452C121.146 56.044 120.6 55.84 119.976 55.84C119.628 55.84 119.358 55.864 119.166 55.912L118.806 55.966V60.844H119.886Z" fill="#0084BD"/>
<path fill-rule="evenodd" clip-rule="evenodd" d="M28.6297 46.1301C31.9331 46.7029 33.7913 50.2509 36.5923 52.1397C39.1986 53.8972 42.5644 54.398 44.5512 56.8665C46.6732 59.5031 47.9881 62.8919 47.9999 66.3134C48.0118 69.7394 46.79 73.2014 44.6167 75.7992C42.5739 78.2409 39.2562 78.8154 36.4115 80.1652C33.8287 81.3907 31.4366 82.9099 28.6297 83.3849C25.4772 83.9183 22.0527 84.5801 19.2129 83.0756C16.35 81.5588 15.0139 78.2143 13.4299 75.3321C11.8585 72.4731 9.96998 69.5969 10.0004 66.3134C10.0307 63.0394 12.096 60.2819 13.5959 57.3932C15.1443 54.411 16.2904 51.0715 18.9483 49.0802C21.7154 47.0071 25.2531 45.5446 28.6297 46.1301Z" fill="#0084BD"/>
<g clip-path="url(#clip0_902_2518)">
<path d="M38.5652 64.5652H37.2388C37.1365 62.6157 36.359 60.8464 35.1313 59.4835L36.2639 58.3509C36.434 58.1808 36.434 57.9061 36.2639 57.7361C36.0939 57.566 35.8192 57.566 35.6491 57.7361L34.5165 58.8687C33.1536 57.641 31.3843 56.8635 29.4348 56.7612V55.4348C29.4348 55.1943 29.2399 55 29 55C28.7601 55 28.5652 55.1943 28.5652 55.4348V56.7612C26.6157 56.8635 24.8464 57.641 23.4835 58.8687L22.3509 57.7361C22.1808 57.566 21.9061 57.566 21.7361 57.7361C21.566 57.9061 21.566 58.1808 21.7361 58.3509L22.8687 59.4835C21.641 60.8464 20.8631 62.6157 20.7608 64.5652H19.4348C19.1949 64.5652 19 64.7595 19 65C19 65.2405 19.1949 65.4348 19.4348 65.4348H20.7612C20.8635 67.3843 21.641 69.1536 22.8687 70.5165L21.7361 71.6491C21.566 71.8192 21.566 72.0939 21.7361 72.2639C21.8208 72.3486 21.9322 72.3913 22.0435 72.3913C22.1547 72.3913 22.2662 72.3486 22.3509 72.2639L23.4835 71.1313C24.8464 72.359 26.6157 73.1365 28.5652 73.2388V74.5652C28.5652 74.8057 28.7601 75 29 75C29.2399 75 29.4348 74.8057 29.4348 74.5652V73.2388C31.3843 73.1365 33.1536 72.359 34.5165 71.1313L35.6495 72.2639C35.7342 72.3486 35.8457 72.3913 35.9565 72.3913C36.0673 72.3913 36.1792 72.3486 36.2639 72.2639C36.434 72.0939 36.434 71.8192 36.2639 71.6491L35.1309 70.5165C36.3586 69.1536 37.136 67.3843 37.2388 65.4348H38.5652C38.8051 65.4348 39 65.2405 39 65C39 64.7595 38.8051 64.5652 38.5652 64.5652V64.5652ZM29 72.3913C24.9243 72.3913 21.6087 69.0757 21.6087 65C21.6087 60.9243 24.9243 57.6087 29 57.6087C33.0757 57.6087 36.3913 60.9243 36.3913 65C36.3913 69.0757 33.0757 72.3913 29 72.3913Z" fill="#40A3CD"/>
<path d="M32.9963 61.0036C32.9921 60.9991 32.9863 60.9979 32.9817 60.994C31.9595 59.9776 30.5519 59.3479 28.9998 59.3479C27.4477 59.3479 26.0402 59.9776 25.0176 60.9936C25.0133 60.9974 25.0072 60.9987 25.0029 61.0032C24.9985 61.0074 24.9972 61.0132 24.9934 61.0178C23.9773 62.0405 23.3477 63.448 23.3477 65.0001C23.3477 66.5522 23.9773 67.9597 24.9934 68.9823C24.9972 68.9866 24.9985 68.9927 25.0029 68.997C25.0072 69.0014 25.0129 69.0027 25.0176 69.0065C26.0402 70.0226 27.4477 70.6523 28.9998 70.6523C30.5519 70.6523 31.9595 70.0226 32.9821 69.0065C32.9863 69.0027 32.9925 69.0014 32.9967 68.997C33.0012 68.9927 33.0025 68.987 33.0063 68.9823C34.0223 67.9597 34.652 66.5522 34.652 65.0001C34.652 63.448 34.0223 62.0405 33.0063 61.0178C33.002 61.0136 33.0008 61.0078 32.9963 61.0036V61.0036ZM32.673 68.0584L30.8116 66.197C30.9629 65.9692 31.0733 65.7119 31.1298 65.4349H33.7604C33.6703 66.4276 33.2776 67.3332 32.673 68.0584V68.0584ZM24.2393 65.4349H26.8699C26.9263 65.7119 27.0367 65.9688 27.1881 66.197L25.3267 68.0584C24.7221 67.3332 24.3293 66.4276 24.2393 65.4349ZM25.3267 61.9417L27.1881 63.8031C27.0367 64.0309 26.9263 64.2882 26.8699 64.5653H24.2393C24.3293 63.5726 24.7221 62.6669 25.3267 61.9417ZM28.9998 66.3044C28.2808 66.3044 27.6955 65.7191 27.6955 65.0001C27.6955 64.281 28.2808 63.6957 28.9998 63.6957C29.7189 63.6957 30.3042 64.281 30.3042 65.0001C30.3042 65.7191 29.7189 66.3044 28.9998 66.3044ZM30.1968 63.1883C29.9685 63.037 29.7117 62.9266 29.4346 62.8701V60.2395C30.4273 60.3296 31.333 60.7227 32.0582 61.3276L30.1968 63.1883ZM28.565 62.8701C28.288 62.9266 28.0307 63.037 27.8029 63.1883L25.9415 61.3269C26.6663 60.7223 27.5724 60.3296 28.565 60.2395V62.8701ZM27.8029 66.8118C28.0311 66.9632 28.288 67.0736 28.565 67.13V69.7606C27.5724 69.6706 26.6667 69.2774 25.9415 68.6726L27.8029 66.8118ZM29.4346 67.13C29.7117 67.0736 29.969 66.9632 30.1968 66.8118L32.0582 68.6732C31.3334 69.2778 30.4273 69.6706 29.4346 69.7606V67.13ZM31.1298 64.5653C31.0733 64.2882 30.9629 64.0314 30.8116 63.8031L32.673 61.9417C33.2776 62.6665 33.6703 63.5726 33.7604 64.5653H31.1298Z" fill="#40A3CD"/>
</g>
<defs>
<clipPath id="clip0_902_2518">
<rect width="20" height="20" fill="white" transform="translate(19 55)"/>
</clipPath>
</defs>
</svg>
