<svg width="117" height="38" viewBox="0 0 117 38" fill="none" xmlns="http://www.w3.org/2000/svg">
<g clip-path="url(#clip0_702_1519)">
<path d="M43 30H116" stroke="#0084BD" stroke-linejoin="round"/>
<path d="M47.1761 9.93H45.8981C45.2261 9.93 44.7101 10.098 44.3501 10.434C44.0021 10.77 43.8281 11.322 43.8281 12.09H43.2881V10.56C43.2881 9.6 43.7981 9.12 44.8181 9.12H53.2781V9.93H49.5161V21H47.1761V9.93ZM56.1436 11.46C56.1436 10.848 56.0596 10.398 55.8916 10.11C55.7236 9.81 55.3876 9.66 54.8836 9.66H54.7036V9.12H62.6416C63.6616 9.12 64.1716 9.6 64.1716 10.56V12.09H63.6316C63.6316 11.346 63.4396 10.8 63.0556 10.452C62.6836 10.104 62.1256 9.93 61.3816 9.93H58.4836V14.43H63.1636V15.24H58.4836V20.19H61.5616C62.2456 20.19 62.8156 20.04 63.2716 19.74C63.7276 19.428 64.1056 18.894 64.4056 18.138L64.8916 18.318L64.3696 19.74C64.2136 20.172 64.0276 20.49 63.8116 20.694C63.5956 20.898 63.2596 21 62.8036 21H56.1436V11.46ZM68.9706 12.09V21H68.0706V11.28C68.0706 10.776 67.9446 10.38 67.6926 10.092C67.4526 9.804 67.0386 9.66 66.4506 9.66H66.3606V9.12H67.6206C68.2926 9.12 68.8386 9.21 69.2586 9.39C69.6906 9.558 70.0506 9.828 70.3386 10.2L76.5306 17.4V9.12H77.4306V21.054H76.6026L68.9706 12.09ZM84.0255 9.93H82.7475C82.0755 9.93 81.5595 10.098 81.1995 10.434C80.8515 10.77 80.6775 11.322 80.6775 12.09H80.1375V10.56C80.1375 9.6 80.6475 9.12 81.6675 9.12H90.1275V9.93H86.3655V21H84.0255V9.93ZM97.1683 21.36C96.0043 21.36 94.9663 21.084 94.0543 20.532C93.1543 19.98 92.4583 19.224 91.9663 18.264C91.4743 17.304 91.2283 16.236 91.2283 15.06C91.2283 13.884 91.4743 12.816 91.9663 11.856C92.4583 10.896 93.1543 10.14 94.0543 9.588C94.9663 9.036 96.0043 8.76 97.1683 8.76C98.3323 8.76 99.3643 9.036 100.264 9.588C101.164 10.14 101.86 10.896 102.352 11.856C102.844 12.816 103.09 13.884 103.09 15.06C103.09 16.236 102.844 17.304 102.352 18.264C101.86 19.224 101.164 19.98 100.264 20.532C99.3643 21.084 98.3323 21.36 97.1683 21.36ZM97.1683 20.55C98.2603 20.55 99.1063 20.076 99.7063 19.128C100.306 18.168 100.606 16.812 100.606 15.06C100.606 13.308 100.306 11.958 99.7063 11.01C99.1063 10.05 98.2603 9.57 97.1683 9.57C96.0763 9.57 95.2303 10.05 94.6303 11.01C94.0423 11.958 93.7483 13.308 93.7483 15.06C93.7483 16.812 94.0423 18.168 94.6303 19.128C95.2303 20.076 96.0763 20.55 97.1683 20.55ZM114.818 21.18C114.158 21.18 113.558 20.988 113.018 20.604C112.478 20.208 111.914 19.53 111.326 18.57L109.526 15.564H108.806V21H106.448V11.46C106.448 10.848 106.364 10.398 106.196 10.11C106.028 9.81 105.692 9.66 105.188 9.66H105.008V9.12H109.976C111.224 9.12 112.346 9.348 113.342 9.804C114.338 10.26 114.836 11.136 114.836 12.432C114.836 13.932 113.864 14.928 111.92 15.42L113.81 18.57C114.518 19.758 115.262 20.418 116.042 20.55V21C115.946 21.048 115.772 21.09 115.52 21.126C115.268 21.162 115.034 21.18 114.818 21.18ZM109.886 14.844C110.558 14.844 111.128 14.646 111.596 14.25C112.076 13.842 112.316 13.206 112.316 12.342C112.316 11.49 112.082 10.86 111.614 10.452C111.146 10.044 110.6 9.84 109.976 9.84C109.628 9.84 109.358 9.864 109.166 9.912L108.806 9.966V14.844H109.886Z" fill="#0084BD"/>
<path fill-rule="evenodd" clip-rule="evenodd" d="M18.6297 0.130091C21.9331 0.70291 23.7913 4.25091 26.5923 6.13972C29.1986 7.8972 32.5644 8.39798 34.5512 10.8665C36.6732 13.5031 37.9881 16.8919 37.9999 20.3134C38.0118 23.7394 36.79 27.2014 34.6167 29.7992C32.5739 32.2409 29.2562 32.8154 26.4115 34.1652C23.8287 35.3907 21.4366 36.9099 18.6297 37.3849C15.4772 37.9183 12.0527 38.5801 9.21289 37.0756C6.34998 35.5588 5.01392 32.2143 3.42986 29.3321C1.85852 26.4731 -0.0300203 23.5969 0.000361897 20.3134C0.0306573 17.0394 2.09598 14.2819 3.59585 11.3932C5.14432 8.41095 6.29035 5.0715 8.94826 3.08024C11.7154 1.00714 15.2531 -0.455417 18.6297 0.130091Z" fill="#0084BD"/>
<path d="M28.5652 18.5652H27.2388C27.1365 16.6157 26.359 14.8464 25.1313 13.4835L26.2639 12.3509C26.434 12.1808 26.434 11.9061 26.2639 11.7361C26.0939 11.566 25.8192 11.566 25.6491 11.7361L24.5165 12.8687C23.1536 11.641 21.3843 10.8635 19.4348 10.7612V9.43478C19.4348 9.19425 19.2399 9 19 9C18.7601 9 18.5652 9.19425 18.5652 9.43478V10.7612C16.6157 10.8635 14.8464 11.641 13.4835 12.8687L12.3509 11.7361C12.1808 11.566 11.9061 11.566 11.7361 11.7361C11.566 11.9061 11.566 12.1808 11.7361 12.3509L12.8687 13.4835C11.641 14.8464 10.8631 16.6157 10.7608 18.5652H9.43478C9.19489 18.5652 9 18.7595 9 19C9 19.2405 9.19489 19.4348 9.43478 19.4348H10.7612C10.8635 21.3843 11.641 23.1536 12.8687 24.5165L11.7361 25.6491C11.566 25.8192 11.566 26.0939 11.7361 26.2639C11.8208 26.3486 11.9322 26.3913 12.0435 26.3913C12.1547 26.3913 12.2662 26.3486 12.3509 26.2639L13.4835 25.1313C14.8464 26.359 16.6157 27.1365 18.5652 27.2388V28.5652C18.5652 28.8057 18.7601 29 19 29C19.2399 29 19.4348 28.8057 19.4348 28.5652V27.2388C21.3843 27.1365 23.1536 26.359 24.5165 25.1313L25.6495 26.2639C25.7342 26.3486 25.8457 26.3913 25.9565 26.3913C26.0673 26.3913 26.1792 26.3486 26.2639 26.2639C26.434 26.0939 26.434 25.8192 26.2639 25.6491L25.1309 24.5165C26.3586 23.1536 27.136 21.3843 27.2388 19.4348H28.5652C28.8051 19.4348 29 19.2405 29 19C29 18.7595 28.8051 18.5652 28.5652 18.5652ZM19 26.3913C14.9243 26.3913 11.6087 23.0757 11.6087 19C11.6087 14.9243 14.9243 11.6087 19 11.6087C23.0757 11.6087 26.3913 14.9243 26.3913 19C26.3913 23.0757 23.0757 26.3913 19 26.3913Z" fill="#F4F4F4"/>
<path d="M22.9963 15.0036C22.9921 14.9991 22.9863 14.9979 22.9817 14.994C21.9595 13.9776 20.5519 13.3479 18.9998 13.3479C17.4477 13.3479 16.0402 13.9776 15.0176 14.9936C15.0133 14.9974 15.0072 14.9987 15.0029 15.0032C14.9985 15.0074 14.9972 15.0132 14.9934 15.0178C13.9773 16.0405 13.3477 17.448 13.3477 19.0001C13.3477 20.5522 13.9773 21.9597 14.9934 22.9823C14.9972 22.9866 14.9985 22.9927 15.0029 22.997C15.0072 23.0014 15.0129 23.0027 15.0176 23.0065C16.0402 24.0226 17.4477 24.6523 18.9998 24.6523C20.5519 24.6523 21.9595 24.0226 22.9821 23.0065C22.9863 23.0027 22.9925 23.0014 22.9967 22.997C23.0012 22.9927 23.0025 22.987 23.0063 22.9823C24.0223 21.9597 24.652 20.5522 24.652 19.0001C24.652 17.448 24.0223 16.0405 23.0063 15.0178C23.002 15.0136 23.0008 15.0078 22.9963 15.0036ZM22.673 22.0584L20.8116 20.197C20.9629 19.9692 21.0733 19.7119 21.1298 19.4349H23.7604C23.6703 20.4276 23.2776 21.3332 22.673 22.0584ZM14.2393 19.4349H16.8699C16.9263 19.7119 17.0367 19.9688 17.1881 20.197L15.3267 22.0584C14.7221 21.3332 14.3293 20.4276 14.2393 19.4349ZM15.3267 15.9417L17.1881 17.8031C17.0367 18.0309 16.9263 18.2882 16.8699 18.5653H14.2393C14.3293 17.5726 14.7221 16.6669 15.3267 15.9417ZM18.9998 20.3044C18.2808 20.3044 17.6955 19.7191 17.6955 19.0001C17.6955 18.281 18.2808 17.6957 18.9998 17.6957C19.7189 17.6957 20.3042 18.281 20.3042 19.0001C20.3042 19.7191 19.7189 20.3044 18.9998 20.3044ZM20.1968 17.1883C19.9685 17.037 19.7117 16.9266 19.4346 16.8701V14.2395C20.4273 14.3296 21.333 14.7227 22.0582 15.3276L20.1968 17.1883ZM18.565 16.8701C18.288 16.9266 18.0307 17.037 17.8029 17.1883L15.9415 15.3269C16.6663 14.7223 17.5724 14.3296 18.565 14.2395V16.8701ZM17.8029 20.8118C18.0311 20.9632 18.288 21.0736 18.565 21.13V23.7606C17.5724 23.6706 16.6667 23.2774 15.9415 22.6726L17.8029 20.8118ZM19.4346 21.13C19.7117 21.0736 19.969 20.9632 20.1968 20.8118L22.0582 22.6732C21.3334 23.2778 20.4273 23.6706 19.4346 23.7606V21.13ZM21.1298 18.5653C21.0733 18.2882 20.9629 18.0314 20.8116 17.8031L22.673 15.9417C23.2776 16.6665 23.6703 17.5726 23.7604 18.5653H21.1298Z" fill="#F4F4F4"/>
</g>
<defs>
<clipPath id="clip0_702_1519">
<rect width="117" height="38" fill="white"/>
</clipPath>
</defs>
</svg>
