<svg width="15" height="15" viewBox="0 0 15 15" fill="none" xmlns="http://www.w3.org/2000/svg">
<path d="M14.8579 14.1839L10.9852 10.3731C11.9993 9.27122 12.6224 7.81401 12.6224 6.21051C12.6219 2.78032 9.7966 0 6.3111 0C2.82559 0 0.000244141 2.78032 0.000244141 6.21051C0.000244141 9.6407 2.82559 12.421 6.3111 12.421C7.81708 12.421 9.19833 11.9001 10.2833 11.0341L14.1711 14.86C14.3605 15.0466 14.668 15.0466 14.8575 14.86C15.0473 14.6734 15.0473 14.3705 14.8579 14.1839ZM6.3111 11.4655C3.36198 11.4655 0.971258 9.11277 0.971258 6.21051C0.971258 3.30825 3.36198 0.955524 6.3111 0.955524C9.26024 0.955524 11.6509 3.30825 11.6509 6.21051C11.6509 9.11277 9.26024 11.4655 6.3111 11.4655Z" fill="#333333"/>
</svg>
